<?xml version="1.0" encoding="utf-8"?>
<!-- Generator: Adobe Illustrator 21.0.0, SVG Export Plug-In . SVG Version: 6.00 Build 0)  -->
<svg version="1.1" xmlns="http://www.w3.org/2000/svg" xmlns:xlink="http://www.w3.org/1999/xlink" x="0px" y="0px"
	 viewBox="0 0 1024 1024" style="enable-background:new 0 0 1024 1024;" xml:space="preserve">
<style type="text/css">
	.st0{fill:#2DBB55;}
	.st1{fill:#999999;}
	.st2{fill:none;stroke:#999999;stroke-width:40;stroke-miterlimit:10;}
	.st3{fill:#3197FB;}
	.st4{fill:#F25644;}
	.st5{fill:#37AEFF;}
	.st6{fill:#15BC84;}
	.st7{fill:#3495FD;}
	.st8{fill:#FCB431;}
	.st9{fill:#111111;}
	.st10{fill:#697C3C;}
	.st11{fill:#8BA945;}
	.st12{fill:#8AA945;}
	.st13{fill:#FDFDFC;}
	.st14{fill:#020202;}
	.st15{fill:#EBEBEB;}
	.st16{fill:#EAEAEA;}
	.st17{fill:none;stroke:#3B481D;stroke-width:20;stroke-miterlimit:10;}
	.st18{fill:#3B481D;}
	.st19{fill:#E6DF90;}
	.st20{fill:#ECECEC;}
	.st21{fill:#0A0A0A;}
	.st22{fill:#FF6600;}
	.st23{fill:none;stroke:#000000;stroke-width:40;stroke-miterlimit:10;}
	.st24{fill:#29A7E1;}
	.st25{fill:#FFFFFF;}
	.st26{fill:#CCCCCC;}
	.st27{fill:url(#SVGID_1_);}
	.st28{fill:#545454;}
	.st29{fill:url(#SVGID_2_);}
	.st30{fill:url(#SVGID_3_);}
	.st31{fill:url(#SVGID_4_);}
	.st32{fill:url(#SVGID_5_);}
	.st33{fill:url(#SVGID_6_);}
	.st34{fill:url(#SVGID_7_);}
	.st35{fill:url(#SVGID_8_);}
	.st36{fill:url(#SVGID_9_);}
	.st37{fill:url(#SVGID_10_);}
	.st38{fill:url(#SVGID_11_);}
	.st39{fill:url(#SVGID_12_);}
	.st40{fill:url(#SVGID_13_);}
	.st41{fill:url(#SVGID_14_);}
	.st42{fill:url(#SVGID_15_);}
</style>
<g id="图层_1">
	<path class="st25" d="M166,912c4.4,9.1,11.1,13.2,21.7,13.2c215.5-0.2,430.9-0.2,646.4,0c12.4,0,19-4.2,23-15.2c0,5.3,0,10.7,0,16
		c-230.3,0-460.7,0-691,0C166,921.3,166,916.7,166,912z"/>
	<g>
		<linearGradient id="SVGID_1_" gradientUnits="userSpaceOnUse" x1="721.4378" y1="626.1597" x2="621.5136" y2="453.0859">
			<stop  offset="0" style="stop-color:#1AD2D1"/>
			<stop  offset="0.9946" style="stop-color:#41EFD9"/>
		</linearGradient>
		<path class="st27" d="M670.7,473.6c1.1-7,3.5-47,1.5-49.8c-12.2,41.1-18.4,120.6-10.2,170.7c3.4,20.5,0.7,44.1,8.6,61l0.5-1
			l-1-49.3c0-35.3-5.2-73.8,0-108.2L670.7,473.6z"/>
		<linearGradient id="SVGID_2_" gradientUnits="userSpaceOnUse" x1="397.8045" y1="552.1869" x2="377.1116" y2="516.3457">
			<stop  offset="0" style="stop-color:#1AD2D1"/>
			<stop  offset="0.9946" style="stop-color:#41EFD9"/>
		</linearGradient>
		<path class="st29" d="M439.6,492.9L439.6,492.9c-10.6,4-22.3,2-31.5,6.1c-29.3,13-63.4,51.2-69.1,86.9h0.5l1-2l13.2-19.8
			c7.1-9.6,17-19.1,26.4-26.4c7.4-5.7,17.2-12.3,26.9-15.2c5.4-1.6,15.7-0.4,20.3-3l14.7-25.9c-0.2-0.2-0.3-0.3-0.5-0.5H439.6z"/>
		<linearGradient id="SVGID_3_" gradientUnits="userSpaceOnUse" x1="735.1214" y1="895.9202" x2="291.3119" y2="127.2197">
			<stop  offset="0" style="stop-color:#1AD2D1"/>
			<stop  offset="0.9946" style="stop-color:#41EFD9"/>
		</linearGradient>
		<path class="st30" d="M594.7,97.6h-163c-183.6,0-332.4,148.8-332.4,332.4v163c0,183.6,148.8,332.4,332.4,332.4h163
			c183.6,0,332.4-148.8,332.4-332.4v-163C927.1,246.5,778.3,97.6,594.7,97.6z M707.3,635.6c-6.6,19.9-13.9,35.4-24.4,50.8
			c-3.7,5.4-7.2,14.8-16.3,13.2c-9.5-7.7-16.3-31.8-21.3-44.7c-8.7-22.4-14-46.8-18.8-74.2c-8.6-48.9,10.1-129.7,24.9-161l-0.5-1
			l-3,2.5c-10.5,21.9-58.9,48.2-84.3,57.4l-31.5,9.1c-1.3,6.1-3,12.5-2,19.8l20.8,4.1c15.5,6,28.9,19,36.6,33
			c30.8,56.5,2.1,131.4-37.1,157.5c-32.8,21.8-72,15.2-93-12.7c-4-5.3-9.9-11.5-11.2-19.3l21.8-16.8c20.5-16.1,36.3-45.3,43.7-74.2
			c3.6-14,4.6-32,1.5-47.8c-1.1-5.9-6.6-16.4-5.1-20.3l12.7-3c-0.1-10.1,1.9-16.7,3-24.4l-1-1c-16.4-2.2-37.7,1.2-45.7,10.7
			c6.5,8.5,14,15.8,18.3,26.9c22.5,58.3-23.3,114.7-55.9,136.1c-23.9,15.8-62.3,23.8-89.4,4.6c-23.9-16.9-35.3-57.3-23.4-95
			c12.4-38.9,40.6-70.1,78.2-83.8c13.3-4.8,35.3-6.6,49.8-1.5c5.2,1.8,8.9,5.6,15.2,6.1c10.7-6.2,26.1-15,42.7-14.2
			c8.1,0.4,16.1,6.5,23.4,5.1c24.8-4.7,60.9-21.5,75.2-37.1c-7.2-6-21.9-2.1-33.5-2c-26.5,0.1-52,0.8-75.2-3.6
			c-84.4-16-160.4-45.1-193-112.3l1-4.1c9.2-5.9,28.2-1.2,37.1-6.6c104.8-1.7,167.8,37.5,225.6,82.8l38.6,36.1
			c22.5,0.7,42.1-42.8,47.8-62.5l6.1-27.9l1-0.5h15.7c-0.2,14.8-8.1,25.6-8.6,37.6l10.7,22.9l17.8,48.8
			C719.2,499.9,725.3,581.6,707.3,635.6z"/>
		<linearGradient id="SVGID_4_" gradientUnits="userSpaceOnUse" x1="498.2153" y1="461.7397" x2="400.9546" y2="293.2793">
			<stop  offset="0" style="stop-color:#1AD2D1"/>
			<stop  offset="0.9946" style="stop-color:#41EFD9"/>
		</linearGradient>
		<path class="st31" d="M332.4,332.9L332.4,332.9c6.4,9.6,29.4,19.1,40.6,24.9c40.3,20.8,85.2,39.4,132.6,52.8
			c10.6,3,50.9,14.3,61,11.7v-0.5C511,404.9,457.6,386.6,406,364.9L332.4,332.9z"/>
	</g>
</g>
<g id="图层_2">
</g>
</svg>
