<?xml version="1.0" encoding="utf-8"?>
<!-- Generator: Adobe Illustrator 21.0.0, SVG Export Plug-In . SVG Version: 6.00 Build 0)  -->
<svg version="1.1" xmlns="http://www.w3.org/2000/svg" xmlns:xlink="http://www.w3.org/1999/xlink" x="0px" y="0px"
	 viewBox="0 0 1024 1024" style="enable-background:new 0 0 1024 1024;" xml:space="preserve">
<style type="text/css">
	.st0{fill:#2DBB55;}
	.st1{fill:#999999;}
	.st2{fill:none;stroke:#999999;stroke-width:40;stroke-miterlimit:10;}
	.st3{fill:#3197FB;}
	.st4{fill:#F25644;}
	.st5{fill:#37AEFF;}
	.st6{fill:#15BC84;}
	.st7{fill:#3495FD;}
	.st8{fill:#FCB431;}
	.st9{fill:#111111;}
	.st10{fill:#697C3C;}
	.st11{fill:#8BA945;}
	.st12{fill:#8AA945;}
	.st13{fill:#FDFDFC;}
	.st14{fill:#020202;}
	.st15{fill:#EBEBEB;}
	.st16{fill:#EAEAEA;}
	.st17{fill:none;stroke:#3B481D;stroke-width:20;stroke-miterlimit:10;}
	.st18{fill:#3B481D;}
	.st19{fill:#E6DF90;}
	.st20{fill:#ECECEC;}
	.st21{fill:#0A0A0A;}
	.st22{fill:#FF6600;}
	.st23{fill:none;stroke:#000000;stroke-width:40;stroke-miterlimit:10;}
	.st24{fill:#29A7E1;}
	.st25{fill:#FFFFFF;}
	.st26{fill:#CCCCCC;}
	.st27{fill:url(#SVGID_1_);}
	.st28{fill:#545454;}
	.st29{fill:url(#SVGID_2_);}
	.st30{fill:url(#SVGID_3_);}
	.st31{fill:url(#SVGID_4_);}
	.st32{fill:url(#SVGID_5_);}
</style>
<g id="图层_1">
	<path class="st25" d="M166,912c4.4,9.1,11.1,13.2,21.7,13.2c215.5-0.2,430.9-0.2,646.4,0c12.4,0,19-4.2,23-15.2c0,5.3,0,10.7,0,16
		c-230.3,0-460.7,0-691,0C166,921.3,166,916.7,166,912z"/>
	<g>
		<linearGradient id="SVGID_1_" gradientUnits="userSpaceOnUse" x1="510.8725" y1="530.2367" x2="450.0903" y2="424.9589">
			<stop  offset="0" style="stop-color:#3797FF"/>
			<stop  offset="0.9946" style="stop-color:#88AAFF"/>
		</linearGradient>
		<circle class="st27" cx="480.5" cy="477.6" r="60.8"/>
		<linearGradient id="SVGID_2_" gradientUnits="userSpaceOnUse" x1="651.5772" y1="547.9034" x2="578.2061" y2="420.8209">
			<stop  offset="0" style="stop-color:#3797FF"/>
			<stop  offset="0.9946" style="stop-color:#88AAFF"/>
		</linearGradient>
		<path class="st29" d="M651.8,452c-35.5-27.5-81.2-26.7-81.2-26.7v97.1h125.2C695.8,522.4,691.2,482.5,651.8,452z"/>
		<linearGradient id="SVGID_3_" gradientUnits="userSpaceOnUse" x1="732.7141" y1="896.0474" x2="288.9046" y2="127.3469">
			<stop  offset="0" style="stop-color:#3797FF"/>
			<stop  offset="0.9946" style="stop-color:#88AAFF"/>
		</linearGradient>
		<path class="st30" d="M592.3,97.8h-163c-183.6,0-332.4,148.8-332.4,332.4v163c0,183.6,148.8,332.4,332.4,332.4h163
			c183.6,0,332.4-148.8,332.4-332.4v-163C924.7,246.6,775.9,97.8,592.3,97.8z M514.5,308l9.6,0c8.2,0,14.9,6.7,14.9,14.9v0
			c0,8.2-6.7,14.9-14.9,14.9l-9.6,0c-8.2,0-14.9-6.7-14.9-14.9C499.6,314.7,506.3,308,514.5,308z M303.2,322.9
			c0-8.2,6.7-14.9,14.9-14.9c51.4,0,103.1,0,154.2,0c8.2,0,14.9,6.7,14.9,14.9v0c0,8.2-6.7,14.9-14.9,14.9c-25.5,0-51.2,0-77,0
			c-25.8,0-51.5,0-77.2,0C309.8,337.9,303.2,331.2,303.2,322.9L303.2,322.9z M433.7,725.4c-4.8-0.3-9-4-9.7-8.7
			c-0.3-1.6-0.1-3.2,0.3-4.6c3.3-6.6,6.6-13.3,10-19.9c3.4,6.6,6.7,13.3,10.1,19.9c0.3,0.8,0.5,1.8,0.4,2.9
			C444.5,719.5,440.5,725.8,433.7,725.4z M460.9,686.8c-4.8-0.3-9-4-9.7-8.7c-0.3-1.6-0.1-3.2,0.3-4.6c3.3-6.6,6.6-13.3,10-19.9
			c3.4,6.6,6.7,13.3,10.1,19.9c0.3,0.8,0.5,1.8,0.4,2.9C471.7,680.9,467.7,687.2,460.9,686.8z M485.7,725.4c-4.8-0.3-9-4-9.7-8.7
			c-0.3-1.6-0.1-3.2,0.3-4.6c3.3-6.6,6.6-13.3,10-19.9c3.4,6.6,6.7,13.3,10.1,19.9c0.3,0.8,0.5,1.8,0.4,2.9
			C496.5,719.5,492.5,725.8,485.7,725.4z M512.9,686.8c-4.8-0.3-9-4-9.7-8.7c-0.3-1.6-0.1-3.2,0.3-4.6c3.3-6.6,6.6-13.3,10-19.9
			c3.4,6.6,6.7,13.3,10.1,19.9c0.3,0.8,0.5,1.8,0.4,2.9C523.8,680.9,519.8,687.2,512.9,686.8z M538.4,725.4c-4.8-0.3-9-4-9.7-8.7
			c-0.3-1.6-0.1-3.2,0.3-4.6c3.3-6.6,6.6-13.3,10-19.9c3.4,6.6,6.7,13.3,10.1,19.9c0.3,0.8,0.5,1.8,0.4,2.9
			C549.3,719.5,545.3,725.8,538.4,725.4z M565.2,686.8c-4.8-0.3-9-4-9.7-8.7c-0.3-1.6-0.1-3.2,0.3-4.6c3.3-6.6,6.6-13.3,10-19.9
			c3.4,6.6,6.7,13.3,10.1,19.9c0.3,0.8,0.5,1.8,0.4,2.9C576,680.9,572,687.2,565.2,686.8z M590.5,725.4c-4.8-0.3-9-4-9.7-8.7
			c-0.3-1.6-0.1-3.2,0.3-4.6c3.3-6.6,6.6-13.3,10-19.9c3.4,6.6,6.7,13.3,10.1,19.9c0.3,0.8,0.5,1.8,0.4,2.9
			C601.3,719.5,597.3,725.8,590.5,725.4z M541.6,634.6c-164.2,0-157.2-85.3-155.9-94.6c0.1-0.6,0.1-1.3,0.1-1.9v-33.9v-19.7
			L313,453.6c-6.1-2-10.2-7.7-10.2-14.1v-45.4c0-8.7,7.4-15.6,16.3-14.8c7.7,0.7,13.6,7.4,13.6,15.2v23.6c0,6.4,4.1,12.1,10.2,14.1
			l45.3-0.6l54.7-48.7c2.7-2.4,6.2-3.7,9.8-3.7H517c8.2,0,15.1,6.5,15,14.7c0,7.9,6.2,14.5,14.1,14.8c29.1,1.3,95.9,8.7,129.1,47.4
			c43.1,50.3,37.9,90.5,37.9,98C713.1,561.5,715.3,634.6,541.6,634.6z M732,322.9c0,8.2-6.7,14.9-14.9,14.9c-30.5,0-60.9,0-91.4,0
			c-20.1,0-40.2,0-60.4,0c-8.2,0-14.9-6.7-14.9-14.9v0c0-8.2,6.7-14.9,14.9-14.9c50.7,0,101.2,0,151.7,0
			C725.3,308,732,314.7,732,322.9L732,322.9z"/>
	</g>
</g>
<g id="图层_2">
</g>
</svg>
