<?xml version="1.0" encoding="utf-8"?>
<!-- Generator: Adobe Illustrator 21.0.0, SVG Export Plug-In . SVG Version: 6.00 Build 0)  -->
<svg version="1.1" xmlns="http://www.w3.org/2000/svg" xmlns:xlink="http://www.w3.org/1999/xlink" x="0px" y="0px"
	 viewBox="0 0 1024 1024" style="enable-background:new 0 0 1024 1024;" xml:space="preserve">
<style type="text/css">
	.st0{fill:#2DBB55;}
	.st1{fill:#999999;}
	.st2{fill:none;stroke:#999999;stroke-width:40;stroke-miterlimit:10;}
	.st3{fill:#3197FB;}
	.st4{fill:#F25644;}
	.st5{fill:#37AEFF;}
	.st6{fill:#15BC84;}
	.st7{fill:#3495FD;}
	.st8{fill:#FCB431;}
	.st9{fill:#111111;}
	.st10{fill:#697C3C;}
	.st11{fill:#8BA945;}
	.st12{fill:#8AA945;}
	.st13{fill:#FDFDFC;}
	.st14{fill:#020202;}
	.st15{fill:#EBEBEB;}
	.st16{fill:#EAEAEA;}
	.st17{fill:none;stroke:#3B481D;stroke-width:20;stroke-miterlimit:10;}
	.st18{fill:#3B481D;}
	.st19{fill:#E6DF90;}
	.st20{fill:#ECECEC;}
	.st21{fill:#0A0A0A;}
	.st22{fill:#FF6600;}
	.st23{fill:none;stroke:#000000;stroke-width:40;stroke-miterlimit:10;}
	.st24{fill:#29A7E1;}
	.st25{fill:#FFFFFF;}
	.st26{fill:#CCCCCC;}
	.st27{fill:url(#SVGID_1_);}
	.st28{fill:#545454;}
	.st29{fill:url(#SVGID_2_);}
	.st30{fill:url(#SVGID_3_);}
	.st31{fill:url(#SVGID_4_);}
	.st32{fill:url(#SVGID_5_);}
	.st33{fill:url(#SVGID_6_);}
	.st34{fill:url(#SVGID_7_);}
	.st35{fill:url(#SVGID_8_);}
	.st36{fill:url(#SVGID_9_);}
	.st37{fill:url(#SVGID_10_);}
	.st38{fill:url(#SVGID_11_);}
</style>
<g id="图层_1">
	<path class="st25" d="M166,912c4.4,9.1,11.1,13.2,21.7,13.2c215.5-0.2,430.9-0.2,646.4,0c12.4,0,19-4.2,23-15.2c0,5.3,0,10.7,0,16
		c-230.3,0-460.7,0-691,0C166,921.3,166,916.7,166,912z"/>
	<linearGradient id="SVGID_1_" gradientUnits="userSpaceOnUse" x1="732.8541" y1="896.5734" x2="289.0446" y2="127.8728">
		<stop  offset="0" style="stop-color:#804EFF"/>
		<stop  offset="0.9946" style="stop-color:#B166FF"/>
	</linearGradient>
	<path class="st27" d="M592.4,98.3h-163C245.9,98.3,97,247.1,97,430.7v163c0,183.6,148.8,332.4,332.4,332.4h163
		c183.6,0,332.4-148.8,332.4-332.4v-163C924.9,247.1,776,98.3,592.4,98.3z M702.9,735.8c-2.2,6.1-5.8,8.4-12.7,8.4
		c-119.4-0.1-238.8-0.1-358.3,0c-5.9,0-9.6-2.2-12-7.3c0-2.4,0-4.8,0-7.2c3.5-4.2,7-8.3,10.5-12.5c0.8-1,1.7-2.2,2.1-3.4
		c4.2-13.1,7.9-26.3,12.4-39.2c5.9-16.8,12.1-33.4,18.7-49.9c5.3-13.2,11.2-26.1,17.3-38.9c5-10.5,10.5-20.9,16.2-31.1
		c6.5-11.5,13.1-22.9,20.6-33.8c8.7-12.7,17.9-25.1,27.6-37c8-9.7,17.1-18.5,25.8-27.7c1.6-1.7,3.6-3.1,5.7-4.8
		c-1-0.9-2.1-1.8-3.1-2.7c-0.3-0.2-0.5-0.5-0.8-0.8c-9.5-7.6-20.5-11.5-32.4-12.5c-13-1.1-25.3,1.5-36.2,9.3
		c-1.2,0.8-2.4,1.9-3.7,2.1c-4,0.4-6.6-1.7-5.2-7.2c2.6-10.5,8.8-19.1,17.2-25.7c10.5-8.2,22.5-12.3,36.1-10.3
		c7.7,1.1,14.7,3.7,21,8.3c1.3,0.9,2.6,1.9,3.9,2.9c0.2-0.7,0.1-1,0-1.3c-0.2-0.4-0.4-0.8-0.7-1.2c-5.6-7.6-11.8-14.5-19.2-20.4
		c-9.6-7.6-19.8-14-31.6-17.5c-6.5-1.9-13.2-3-19.9-3.9c-3.6-0.5-7.3,0.2-11,0.4c-3.8,0.3-7.6,0.9-11.4,1.1
		c-2.6,0.1-3.7-1.2-3.9-3.8c-0.3-3.8,2.7-5.9,4.7-8.2c6.8-7.6,14.9-13.4,24.4-17.5c9-3.9,18.3-6.3,28-6.9c7.3-0.4,14.6-0.1,21.8,1.5
		c13.2,2.8,24.8,8.6,34.4,18c3.3,3.2,6.3,6.7,9.4,10.1c-0.2-1.4-0.9-2.7-1.4-4c-3.8-9.7-9.7-18.2-16.7-25.9
		c-8-8.7-17.6-15.2-28.5-19.6c-2.6-1-3.6-2.9-3.6-5.5c0-2.4,1-4.4,3.5-5.2c2.4-0.8,4.8-1.6,7.2-2.2c2.9-0.7,5.8-1.1,8.6-1.7
		c4.4,0,8.9,0,13.3,0c0.4,0.2,0.7,0.5,1.1,0.5c9.8,0.6,19,3.5,27.8,7.6c11,5.2,20.4,12.5,27.8,22.2c9.4,12.3,14.1,26.2,14.7,41.5
		c0.1,3,0,6.1,0,9.2c0.6-0.1,1.2-0.2,1.7-0.2c6.2-1.1,12.4-2.8,18.7-3.1c5.7-0.3,11.5,0.5,17.1,1.5c18.2,3.2,32.6,13.2,43.8,27.4
		c8,10.2,13.8,21.7,15.9,34.6c0.9,5.2,1.1,10.5,1.4,15.8c0.1,1.8-0.1,3.8-1,5.3c-0.8,1.4-2.5,2.7-4,3.2c-2.9,0.9-5.3-0.4-7.1-2.9
		c-4.5-6.5-10.1-12-16.4-16.7c-9.4-7-19.9-11.8-31.2-14.6c-1.7-0.4-3.3-0.8-5-1.1c-1.7-0.3-3.4-0.4-5.7-0.7c0.8,0.7,1,0.9,1.2,1
		c11.3,4.7,20.6,12,28.2,21.6c10.7,13.5,15.4,29.2,16,46.2c0.2,6-0.7,12-1.6,17.9c-1.8,12-7,22.6-14.6,31.9
		c-0.9,1.1-3.2,1.5-4.8,1.5c-2,0-3.5-1.4-3.8-3.5c-0.4-3.5-0.7-7.1-1.2-10.6c-1.2-8.6-3.8-16.8-7.8-24.4
		c-5.6-10.5-13-19.7-22.1-27.5c-7.7-6.6-16.1-12.1-25.3-16.3c-2.3-1-4.6-1.8-6.6-2.6c3.5,3.6,7.4,7.2,10.6,11.2
		c5.3,6.6,8.4,14.4,9.1,22.9c0.9,10.5-1.3,20.4-6.6,29.6c-4.8,8.3-11.2,15.1-19.9,19.3c-1.7,0.8-4.6,0.6-6.1-0.3
		c-1.9-1.2-1.8-3.7-0.7-6.1c2.8-6.5,4.6-13.4,4.5-20.6c-0.1-8-1.9-15.8-5-23.2c-4.1-9.9-10.3-18.2-18.8-24.7
		c-1.1-0.9-1.9-0.6-2.7,0.4c-4.8,6.3-9.9,12.5-14.5,19c-11.6,16.2-21.5,33.4-30.1,51.5c-7.6,16-14.1,32.3-18.9,49.2
		c-3.2,11-5.5,22.2-8,33.4c-1.1,5.1-1.6,10.4-2.3,15.6c-0.6,4.1-1.2,8.3-1.6,12.4c-0.4,3.8-0.4,7.6-0.6,11.6
		c39.7-10.1,79.7-12.6,120.1-8.6c-0.8-14.2-3.2-28-7.9-41.4c-0.7,0.1-1.3,0.1-1.8,0.3c-8.7,2.8-17.1,13.2-16.8,22.9
		c0,1.1-0.3,2.9-1.1,3.3c-1.4,0.7-2.9,0.4-3.8-1.6c-0.8-1.8-2.2-3.4-2.9-5.2c-2.9-7.2-2.4-14.3,2.4-20.5c2.4-3,5.8-5.2,8.4-7.5
		c-0.2,0-1.1,0-2.1,0c-0.3,0-0.6,0-0.8,0c-13.7,2.5-24.9,8.6-31.2,21.8c-0.4,0.9-1.9,2-2.8,1.9c-0.8-0.1-1.9-1.5-2.2-2.5
		c-1.3-4.5-1.5-9.1-0.7-13.8c1.6-9.2,6-16.8,13.4-22.3c4.7-3.5,10.1-5.4,16.6-5.8c-10.1-2.2-18.8-0.4-27.1,4.2
		c-1.1,0.6-3.1,0.8-4.1,0.2c-0.7-0.4-0.9-2.7-0.5-3.8c3.4-10.4,10.7-17.2,20.9-20.9c6.2-2.3,12.7-2.7,19-0.6c3.8,1.2,7.4,3,11.2,4.6
		c0.8-1.8,1.7-3.9,2.8-5.8c3.3-6,8.1-10.5,14.5-13.4c6.2-2.8,12.6-3.1,19-2.5c5.8,0.5,11.3,2.5,15.6,6.8c0.7,0.7,1.3,2.2,1,2.7
		c-0.6,0.9-1.9,1.7-3,1.9c-1.7,0.4-3.6,0.3-5.4,0.7c-7.2,1.5-13.2,5.1-18.3,10.3c6.3-2.4,12.5-4.2,19.5-3.3
		c10.8,1.4,24.4,10.5,27.5,22.6c0.2,0.9,0.1,2.4-0.4,2.9c-0.5,0.5-2.1,0.4-2.8-0.1c-8.3-4.7-17-6.3-26.5-4.2
		c-5.5,1.2-10.3,3.5-15.3,6.4c0.5,0.2,0.7,0.3,0.8,0.3c11.4-2.5,20.2,2.8,24.3,13.3c1.2,3,2.4,6.4,1,9.7c-0.3,0.7-1,1.7-1.5,1.8
		c-0.8,0.1-2.1-0.4-2.6-1c-5.9-8.3-14-11.2-23.8-10.4c-2,0.2-4,1-6.2,1.6c0.7,1.2,1.2,1.9,1.5,2.6c7,14,11.1,28.9,13.7,44.3
		c0.3,1.8,1.1,2.6,2.9,3c6.8,1.3,13.8,2.3,20.4,4.2c11.5,3.3,23,6.7,34.3,10.8c14.1,5.2,27.7,11.7,40.1,20.3
		c7.7,5.3,15.2,10.8,22.3,16.9c5.5,4.7,11,9.6,14.2,16.4C702.9,732.5,702.9,734.1,702.9,735.8z"/>
</g>
<g id="图层_2">
</g>
</svg>
