<?xml version="1.0" encoding="utf-8"?>
<!-- Generator: Adobe Illustrator 21.0.0, SVG Export Plug-In . SVG Version: 6.00 Build 0)  -->
<svg version="1.1" xmlns="http://www.w3.org/2000/svg" xmlns:xlink="http://www.w3.org/1999/xlink" x="0px" y="0px"
	 viewBox="0 0 1024 1024" style="enable-background:new 0 0 1024 1024;" xml:space="preserve">
<style type="text/css">
	.st0{fill:#2DBB55;}
	.st1{fill:#999999;}
	.st2{fill:none;stroke:#999999;stroke-width:40;stroke-miterlimit:10;}
	.st3{fill:#3197FB;}
	.st4{fill:#F25644;}
	.st5{fill:#37AEFF;}
	.st6{fill:#15BC84;}
	.st7{fill:#3495FD;}
	.st8{fill:#FCB431;}
	.st9{fill:#111111;}
	.st10{fill:#697C3C;}
	.st11{fill:#8BA945;}
	.st12{fill:#8AA945;}
	.st13{fill:#FDFDFC;}
	.st14{fill:#020202;}
	.st15{fill:#EBEBEB;}
	.st16{fill:#EAEAEA;}
	.st17{fill:none;stroke:#3B481D;stroke-width:20;stroke-miterlimit:10;}
	.st18{fill:#3B481D;}
	.st19{fill:#E6DF90;}
	.st20{fill:#ECECEC;}
	.st21{fill:#0A0A0A;}
	.st22{fill:#FF6600;}
	.st23{fill:none;stroke:#000000;stroke-width:40;stroke-miterlimit:10;}
	.st24{fill:#29A7E1;}
	.st25{fill:#FFFFFF;}
	.st26{fill:#CCCCCC;}
	.st27{fill:url(#SVGID_1_);}
	.st28{fill:#545454;}
	.st29{fill:url(#SVGID_2_);}
	.st30{fill:url(#SVGID_3_);}
	.st31{fill:url(#SVGID_4_);}
	.st32{fill:url(#SVGID_5_);}
	.st33{fill:url(#SVGID_6_);}
	.st34{fill:url(#SVGID_7_);}
</style>
<g id="图层_1">
	<path class="st25" d="M166,912c4.4,9.1,11.1,13.2,21.7,13.2c215.5-0.2,430.9-0.2,646.4,0c12.4,0,19-4.2,23-15.2c0,5.3,0,10.7,0,16
		c-230.3,0-460.7,0-691,0C166,921.3,166,916.7,166,912z"/>
	<g>
		<linearGradient id="SVGID_1_" gradientUnits="userSpaceOnUse" x1="490.2705" y1="593.104" x2="438.2731" y2="503.0419">
			<stop  offset="0" style="stop-color:#47E081"/>
			<stop  offset="0.9946" style="stop-color:#A7E95D"/>
		</linearGradient>
		<path class="st27" d="M451.4,519.6c-15.7,7.8-32.6,7.2-49.6,4.5c-0.2,0.4-0.4,0.8-0.6,1.2c12.7,28.5,25.4,56.9,38.3,85.9
			c2.3-3.8,4.1-6.9,6-9.9c6.7-10.7,14.5-20.7,24.8-28.1c13.3-9.5,28.2-9.2,43.3-5.8c4.4,1,8.8,2.6,14,4.2
			c-13.2-29.5-25.9-58-38.9-87.1C478,499,466.9,511.9,451.4,519.6z"/>
		<linearGradient id="SVGID_2_" gradientUnits="userSpaceOnUse" x1="733.2053" y1="896.6628" x2="289.3958" y2="127.9622">
			<stop  offset="0" style="stop-color:#47E081"/>
			<stop  offset="0.9946" style="stop-color:#A7E95D"/>
		</linearGradient>
		<path class="st29" d="M592.8,98.4h-163c-183.6,0-332.4,148.8-332.4,332.4v163c0,183.6,148.8,332.4,332.4,332.4h163
			c183.6,0,332.4-148.8,332.4-332.4v-163C925.2,247.2,776.4,98.4,592.8,98.4z M492.4,345.5c8.7-2.9,17.6-4.7,26.8-5.6
			c11.2-1,21.8,0.6,31.9,5c8.5,3.7,14.2,10.3,15.5,20c2.4,17.4-7.5,26.4-18.5,32.5c-10.7,6-22.4,9.4-34.5,10.8
			c-13.9,1.6-27.9,2.5-41.9,3.8c-2.5,0.2-4.1-0.6-5.4-2.9c-1.8-3.1-4-5.9-6.2-9c21.4-2.8,41.8-8.5,62-14.9
			c6.8-2.1,13.5-5.1,19.4-8.8c7.1-4.5,5.1-10.6-0.8-13c-6.1-2.5-12.3-2.9-18.8-2.7c-13.5,0.4-25.7,5.2-37.4,11.1
			c-9.6,4.7-18.5,10.7-26,18.4c-0.4,0.4-1,0.7-1.7,1.3c-1-4.4-2.5-8.2-2.4-12.1c0.1-2.9,1.8-6.1,3.4-8.7
			C466,357.8,478.3,350.3,492.4,345.5z M318.1,354.2c0-0.5,0-1,0-1.5c0.6-0.4,1.3-0.7,1.7-1.2c5-6.5,9.9-13.1,14.8-19.5
			c9.7,7.4,19,14.6,28.2,21.7c0.3-0.3,0.6-0.6,1-0.9c-5-10.6-9.9-21.1-15-31.9c1.4-0.5,2.3-0.9,3.2-1.1c12.4-2,24.8-3.9,37.2-6.1
			c3.8-0.6,7.1-0.6,10.1,2.4c2,2.1,4.9,3.3,7.9,5.3c0.5-5,0.9-9.2,1.2-13.3c1.3,0,2.5,0,3.8,0c8.7,0.9,15.7,1.5,20.4,1.8
			c3.9,0.3,6.3,0.4,13.7,0.9c6.1,0.4,11.1,0.7,14.3,1c-12.1,25.7-16,52.6-11.3,80.9c-7.8,2.1-15.1,4.2-22.4,6.2
			c-14.9,4-29.8,7.8-44.7,11.9c-2,0.5-2.8,0.1-3.5-1.4c-6.2-13.1-15.4-23.8-26.1-33.4c-10-8.9-21.2-15.9-33.2-21.8
			C319.1,354.1,318.5,354.2,318.1,354.2z M703.2,717.5c-0.8,0.2-1.7,0.1-2.6,0.1c-124.8,0-249.5,0-374.3,0
			c-1.8-11.1-3.7-22.3-5.5-33.4c15.9-5.3,31.4-10.5,46.9-15.7c0-0.2-0.1-0.4-0.1-0.6c-11.1-1.4-22.2-2.7-33-4
			c-1-5.2-1.9-9.6-2.7-14.1c-2.6-14.3-5.4-28.6-7.8-43c-1.8-10.9-3-21.8-4.2-32.7c-0.6-5.6-0.5-11.2-0.9-16.8l0-12.5
			c0.8-8.8,1.2-17.6,2.4-26.3c1.9-14,6.4-27.2,12.9-39.7c7.9-15.2,18.7-28.2,31.8-39.1c10.5-8.8,21.6-15.7,35.7-17.5
			c14.2-1.8,28.1-5.4,42.2-7.9c4.6-0.9,9.5-2,14-1.4c6.4,1,12.6,3.3,18.8,5.4c20.9,6.9,40.8,15.8,59.9,26.8
			c23.9,13.7,45.6,30.2,65.2,49.4c11.6,11.4,22.1,23.9,31.6,37.3c12.2,17.2,22.2,35.5,30,55.1c7,17.8,11.3,36.3,13.7,55.2
			c0.3,2.5,0,5.4-1.2,7.5c-1.9,3.5-4.7,6.4-7,9.6c-2.9,4-5.6,8-9,12.7c2.9-0.3,4.8-0.6,6.8-0.7c7.6-0.3,15.2-0.5,22.9-0.8
			c2.1-0.1,4.3-0.2,6.4,0.1c0.9,0.1,2.1,1.3,2.3,2.2c0.5,2.4,0.6,4.9,0.9,7.4c1,9.7,2,19.5,3.1,29.2c0.3,2.3,1.1,4.6,1.7,6.8
			C703.8,716.5,703.6,717.4,703.2,717.5z"/>
	</g>
</g>
<g id="图层_2">
</g>
</svg>
