<?xml version="1.0" encoding="utf-8"?>
<!-- Generator: Adobe Illustrator 21.0.0, SVG Export Plug-In . SVG Version: 6.00 Build 0)  -->
<svg version="1.1" xmlns="http://www.w3.org/2000/svg" xmlns:xlink="http://www.w3.org/1999/xlink" x="0px" y="0px"
	 viewBox="0 0 1024 1024" style="enable-background:new 0 0 1024 1024;" xml:space="preserve">
<style type="text/css">
	.st0{fill:#2DBB55;}
	.st1{fill:#999999;}
	.st2{fill:none;stroke:#999999;stroke-width:40;stroke-miterlimit:10;}
	.st3{fill:#3197FB;}
	.st4{fill:#F25644;}
	.st5{fill:#37AEFF;}
	.st6{fill:#15BC84;}
	.st7{fill:#3495FD;}
	.st8{fill:#FCB431;}
	.st9{fill:#111111;}
	.st10{fill:#697C3C;}
	.st11{fill:#8BA945;}
	.st12{fill:#8AA945;}
	.st13{fill:#FDFDFC;}
	.st14{fill:#020202;}
	.st15{fill:#EBEBEB;}
	.st16{fill:#EAEAEA;}
	.st17{fill:none;stroke:#3B481D;stroke-width:20;stroke-miterlimit:10;}
	.st18{fill:#3B481D;}
	.st19{fill:#E6DF90;}
	.st20{fill:#ECECEC;}
	.st21{fill:#0A0A0A;}
	.st22{fill:#FF6600;}
	.st23{fill:none;stroke:#000000;stroke-width:40;stroke-miterlimit:10;}
	.st24{fill:#29A7E1;}
	.st25{fill:#FFFFFF;}
	.st26{fill:#CCCCCC;}
	.st27{fill:url(#SVGID_1_);}
	.st28{fill:#545454;}
	.st29{fill:url(#SVGID_2_);}
	.st30{fill:url(#SVGID_3_);}
	.st31{fill:url(#SVGID_4_);}
	.st32{fill:url(#SVGID_5_);}
	.st33{fill:url(#SVGID_6_);}
	.st34{fill:url(#SVGID_7_);}
	.st35{fill:url(#SVGID_8_);}
</style>
<g id="图层_1">
	<path class="st25" d="M166,912c4.4,9.1,11.1,13.2,21.7,13.2c215.5-0.2,430.9-0.2,646.4,0c12.4,0,19-4.2,23-15.2c0,5.3,0,10.7,0,16
		c-230.3,0-460.7,0-691,0C166,921.3,166,916.7,166,912z"/>
	<linearGradient id="SVGID_1_" gradientUnits="userSpaceOnUse" x1="733.4942" y1="896.1481" x2="289.6847" y2="127.4475">
		<stop  offset="0" style="stop-color:#FF4231"/>
		<stop  offset="0.9946" style="stop-color:#FF695D"/>
	</linearGradient>
	<path class="st27" d="M593.1,97.9h-163c-183.6,0-332.4,148.8-332.4,332.4v163c0,183.6,148.8,332.4,332.4,332.4h163
		c183.6,0,332.4-148.8,332.4-332.4v-163C925.5,246.7,776.7,97.9,593.1,97.9z M397.4,402.4c3.5-1.7,5.3-4,5.4-8.4
		c0.2-12.7,4.6-24,12.3-34.1c13.1-17.3,30.9-28.1,50.5-36.3c9.5-4,19.4-6.9,29-10.5c3.5-1.3,6.9-3.3,10.1-5.3
		c6.5-4.1,12.6-3.6,18.3,1.3c5.7,4.9,12.9,6,19.6,8.6c17.8,7,34.8,15.4,49.9,27.3c9.5,7.5,17.5,16.2,23.1,26.9
		c3.3,6.3,5.6,13,5.6,20.3c0,5.2,1.8,9.2,6.8,12.3c5.3,3.4,8.3,9.3,11,15.1c1.2,2.5,2.3,5.1,3.5,7.8c-87,0-173.5,0-260.7,0
		C384.4,417.1,387.2,407.5,397.4,402.4z M424.3,718.7c-6.7,0.3-12.9-0.1-19.6-0.1c-0.9,0-1.9,0.1-2.8-0.1
		c-17.3-4.5-34.4-9.6-50.3-18c-8.9-4.7-17.6-10.1-21.6-20.3v-29.2c2.6-10.7,9.3-18.8,17.5-25.5c7.3-5.9,15.1-11.3,23.2-16.1
		c8.9-5.3,18.3-9.6,27.5-14.2c1.5-0.8,3.1-1.3,5.5-2.3c8.3,41.6,13.8,83.3,20.6,125.3V718.7z M580.5,716c-0.1,0.2-0.2,0.4-0.3,0.6
		l-3.4-0.9c-9.8-1.7-19.7-3.5-29.5-4.9c-5.3-0.8-10.7-1.2-16.1-1.4c-8.7-0.4-17.5-1.1-26.2-0.6c-10.2,0.6-20.4,0.7-30.6,2
		c-9.4,1.3-19.3,3-28.1,6.1c-0.8,0.3-1.5,0.5-2.3,0.7c-0.1-0.3,0-0.7-0.2-1c-1.8-10.9-3.4-21.1-5.1-31.2c-1.5-9.3-3.2-18.5-4.7-27.8
		c-1.9-11.3-3.8-22.7-5.6-34.1c-1.4-8.9-2.5-17.8-3.7-26.6c-0.5-3.9-1.1-7.9-1.3-11.8c-0.1-1,1.1-2.6,2-2.9
		c9.8-3.3,19.5-6.5,29.4-9.4c11.2-3.3,15.9-12.7,12.2-24.9c-1.1-3.6-2.8-6.5-5.5-9.1c-7.6-7.4-15.2-14.7-21-23.7
		c-7.4-11.2-12.5-23.3-14.3-36.6c-1.4-9.8-2.4-19.7-3.6-29.9h178.2c-0.3,5.6-0.4,11.2-1.1,16.7c-0.9,7.3-2,14.5-3.5,21.6
		c-2.8,12.5-8.4,23.9-16.7,33.7c-6,7.2-12.9,13.6-19.4,20.4c-0.6,0.6-1.1,1.3-1.3,2c-1.4,5.6-3.5,10.9-2.5,16.9
		c1.1,6.4,4.2,10.1,10.5,12c11.5,3.4,23,7,34.8,10.7C596.4,627.4,588,671.1,580.5,716C580.5,716,580.5,716,580.5,716z M694.4,678.7
		c-2.4,8.8-8.7,14.4-16.3,18.4c-9.4,4.9-19.1,9.6-29,13.4c-8.8,3.4-18,6.9-27.3,7.7c-7.3,0.7-14.7,0.7-22,0.6l7.1-44.6
		c1.9-12.8,3.7-25.6,5.8-38.3c2.2-13.5,4.7-27,7.1-40.5c0.1-0.8,0.7-1.4,1.2-2.4c2.3,1,4.6,1.7,6.8,2.8
		c12.8,6.9,25.7,13.5,38.1,20.9c9.1,5.4,17.1,12.6,22.7,21.6c2.6,4.2,3.9,9.2,5.9,13.8V678.7z"/>
</g>
<g id="图层_2">
</g>
</svg>
