<?xml version="1.0" encoding="utf-8"?>
<!-- Generator: Adobe Illustrator 21.0.0, SVG Export Plug-In . SVG Version: 6.00 Build 0)  -->
<svg version="1.1" xmlns="http://www.w3.org/2000/svg" xmlns:xlink="http://www.w3.org/1999/xlink" x="0px" y="0px"
	 viewBox="0 0 1024 1024" style="enable-background:new 0 0 1024 1024;" xml:space="preserve">
<style type="text/css">
	.st0{fill:#2DBB55;}
	.st1{fill:#999999;}
	.st2{fill:none;stroke:#999999;stroke-width:40;stroke-miterlimit:10;}
	.st3{fill:#3197FB;}
	.st4{fill:#F25644;}
	.st5{fill:#37AEFF;}
	.st6{fill:#15BC84;}
	.st7{fill:#3495FD;}
	.st8{fill:#FCB431;}
	.st9{fill:#111111;}
	.st10{fill:#697C3C;}
	.st11{fill:#8BA945;}
	.st12{fill:#8AA945;}
	.st13{fill:#FDFDFC;}
	.st14{fill:#020202;}
	.st15{fill:#EBEBEB;}
	.st16{fill:#EAEAEA;}
	.st17{fill:none;stroke:#3B481D;stroke-width:20;stroke-miterlimit:10;}
	.st18{fill:#3B481D;}
	.st19{fill:#E6DF90;}
	.st20{fill:#ECECEC;}
	.st21{fill:#0A0A0A;}
	.st22{fill:#FF6600;}
	.st23{fill:none;stroke:#000000;stroke-width:40;stroke-miterlimit:10;}
	.st24{fill:#29A7E1;}
	.st25{fill:#FFFFFF;}
	.st26{fill:#CCCCCC;}
	.st27{fill:url(#SVGID_1_);}
	.st28{fill:#545454;}
	.st29{fill:url(#SVGID_2_);}
	.st30{fill:url(#SVGID_3_);}
	.st31{fill:url(#SVGID_4_);}
	.st32{fill:url(#SVGID_5_);}
	.st33{fill:url(#SVGID_6_);}
	.st34{fill:url(#SVGID_7_);}
	.st35{fill:url(#SVGID_8_);}
	.st36{fill:url(#SVGID_9_);}
	.st37{fill:url(#SVGID_10_);}
	.st38{fill:url(#SVGID_11_);}
	.st39{fill:url(#SVGID_12_);}
	.st40{fill:url(#SVGID_13_);}
	.st41{fill:url(#SVGID_14_);}
	.st42{fill:url(#SVGID_15_);}
	.st43{fill:url(#SVGID_16_);}
	.st44{fill:url(#SVGID_17_);}
</style>
<g id="图层_1">
	<path class="st25" d="M166,912c4.4,9.1,11.1,13.2,21.7,13.2c215.5-0.2,430.9-0.2,646.4,0c12.4,0,19-4.2,23-15.2c0,5.3,0,10.7,0,16
		c-230.3,0-460.7,0-691,0C166,921.3,166,916.7,166,912z"/>
	<g>
		<linearGradient id="SVGID_1_" gradientUnits="userSpaceOnUse" x1="554.3971" y1="607.925" x2="465.7255" y2="454.3414">
			<stop  offset="0" style="stop-color:#FF356A"/>
			<stop  offset="0.9946" style="stop-color:#FF6797"/>
		</linearGradient>
		<path class="st27" d="M597.1,505.2c-2.6-4-7.1-4.6-11.5-4.6c-13.9-0.1-27.8,0-41.7,0c-1.1,0-2.3,0-3.6,0c0-1.6,0-2.7,0-3.9
			c0-14.4-0.3-28.9,0.1-43.3c0.2-7.2-7.2-12.7-12.8-12.6c-11.6,0.2-23.3,0.1-35,0.1c-7.3,0-12.7,5.5-12.7,12.8c0,14.4,0,28.9,0,43.3
			c0,1.1,0,2.3,0,3.6c-14.7,0-28.9,0-43.1,0c-2.5,0-5.1,0.2-7.5,0.7c-5.3,1.1-9.1,6.7-9.1,11.1c0.1,12.1,0,24.2,0,36.2
			c0,7.6,5.3,12.9,12.9,12.9c14.3,0,28.6,0,43,0c1.2,0,2.3,0,3.8,0c0,16.1,0.1,31.7,0,47.3c0,5.4,5.4,12.7,12.5,12.5
			c12.1-0.4,24.2-0.3,36.2,0c5.8,0.1,11.8-5.9,11.7-11.6c-0.2-14.9-0.1-29.7-0.1-44.6c0-1.1,0-2.3,0-3.5c1.6,0,2.8,0,4,0
			c14.4,0,28.9,0,43.3,0c7.5,0,13-5.4,13-12.8c0-11.8,0.2-23.5-0.1-35.3C600.3,510.6,598.7,507.6,597.1,505.2z"/>
		<linearGradient id="SVGID_2_" gradientUnits="userSpaceOnUse" x1="733.9128" y1="895.6628" x2="290.1034" y2="126.9622">
			<stop  offset="0" style="stop-color:#FF356A"/>
			<stop  offset="0.9946" style="stop-color:#FF6797"/>
		</linearGradient>
		<path class="st29" d="M593.5,97.4h-163c-183.6,0-332.4,148.8-332.4,332.4v163c0,183.6,148.8,332.4,332.4,332.4h163
			c183.6,0,332.4-148.8,332.4-332.4v-163C925.9,246.2,777.1,97.4,593.5,97.4z M424.8,337.7c0.5-5.7-0.7-11.4,1.2-17
			c2.5-7.4,12.1-13.5,18.5-13.4c43.3,0.3,86.6,0.4,129.8,0c9.6-0.1,19.1,7.2,20.7,15.5c1.7,8.6,2.4,17.2-1.7,25.4
			c-3.7,7.3-10,11.2-18.3,11.2c-21.5,0.1-43,0-64.4,0c-21.4,0-42.7-0.2-64.1,0.1C434.7,359.6,423.8,349.2,424.8,337.7z M739.8,630.1
			c0,4.3-0.3,8.7-0.6,13c-0.7,8.3-3.4,16.2-6.8,23.7c-7.2,15.6-18.3,27.7-32.8,36.6c-12.3,7.6-25.8,11.9-40.2,11.9
			c-98.6,0.2-197.1,0.1-295.7,0c-4.5,0-9.1-0.5-13.5-1.3c-20-3.5-36.6-12.9-49.7-28.5c-9-10.7-15.1-22.8-17.9-36.5
			c-0.7-3.5-1.3-7.1-1.9-10.6c0-71.6,0-143.3,0-214.9c0.6-3.4,1.3-6.9,1.9-10.3c3.1-16.5,11.3-30.4,22.9-42.2
			c4.7-4.7,10.3-8.6,16-12.2c10.2-6.5,21.5-10.6,33.6-11.5c12.6-0.9,25.4-0.6,38-0.8c2.2,0,4.4,0,6.7,0c1.7,12.1,6.5,22.3,16.2,29.8
			c6.8,5.3,14.4,8.7,23.1,8.7c47.8,0.1,95.6,0.1,143.4,0c7.7,0,14.8-2.8,21-7.4c10.3-7.7,16.5-17.8,17.5-31.2
			c17.1,0.8,34.2-1.2,51.2,1.9c17.2,3.2,31.7,11.2,44,23.4c7.8,7.7,13.7,16.8,17.8,26.9c4,9.8,6.1,20,6.1,30.7
			C739.7,496.2,739.8,563.2,739.8,630.1z"/>
	</g>
</g>
<g id="图层_2">
</g>
</svg>
