<?xml version="1.0" encoding="utf-8"?>
<!-- Generator: Adobe Illustrator 21.0.0, SVG Export Plug-In . SVG Version: 6.00 Build 0)  -->
<svg version="1.1" xmlns="http://www.w3.org/2000/svg" xmlns:xlink="http://www.w3.org/1999/xlink" x="0px" y="0px"
	 viewBox="0 0 1024 1024" style="enable-background:new 0 0 1024 1024;" xml:space="preserve">
<style type="text/css">
	.st0{fill:#2DBB55;}
	.st1{fill:#999999;}
	.st2{fill:none;stroke:#999999;stroke-width:40;stroke-miterlimit:10;}
	.st3{fill:#3197FB;}
	.st4{fill:#F25644;}
	.st5{fill:#37AEFF;}
	.st6{fill:#15BC84;}
	.st7{fill:#3495FD;}
	.st8{fill:#FCB431;}
	.st9{fill:#111111;}
	.st10{fill:#697C3C;}
	.st11{fill:#8BA945;}
	.st12{fill:#8AA945;}
	.st13{fill:#FDFDFC;}
	.st14{fill:#020202;}
	.st15{fill:#EBEBEB;}
	.st16{fill:#EAEAEA;}
	.st17{fill:none;stroke:#3B481D;stroke-width:20;stroke-miterlimit:10;}
	.st18{fill:#3B481D;}
	.st19{fill:#E6DF90;}
	.st20{fill:#ECECEC;}
	.st21{fill:#0A0A0A;}
	.st22{fill:#FF6600;}
	.st23{fill:none;stroke:#000000;stroke-width:40;stroke-miterlimit:10;}
	.st24{fill:#29A7E1;}
	.st25{fill:#FFFFFF;}
	.st26{fill:#CCCCCC;}
	.st27{fill:url(#SVGID_1_);}
	.st28{fill:#545454;}
	.st29{fill:url(#SVGID_2_);}
</style>
<g id="图层_1">
	<path class="st25" d="M166,912c4.4,9.1,11.1,13.2,21.7,13.2c215.5-0.2,430.9-0.2,646.4,0c12.4,0,19-4.2,23-15.2c0,5.3,0,10.7,0,16
		c-230.3,0-460.7,0-691,0C166,921.3,166,916.7,166,912z"/>
	<linearGradient id="SVGID_1_" gradientUnits="userSpaceOnUse" x1="733.8195" y1="896.4266" x2="290.0099" y2="127.7261">
		<stop  offset="0" style="stop-color:#ED8A00"/>
		<stop  offset="0.9946" style="stop-color:#FCB44E"/>
	</linearGradient>
	<path class="st27" d="M593.4,98.2h-163C246.8,98.2,98,247,98,430.6v163C98,777.2,246.8,926,430.4,926h163
		c183.6,0,332.4-148.8,332.4-332.4v-163C925.8,247,777,98.2,593.4,98.2z M421.3,647.2c0,0.3,0,0.5,0,0.8c0,0.7-0.1,1.5-0.2,2.2
		c0,0.4-0.1,0.8-0.1,1.1c-0.1,0.6-0.1,1.1-0.2,1.7c-0.1,0.5-0.1,0.9-0.2,1.4c-0.1,0.3-0.1,0.6-0.2,0.9c-0.2,1-0.4,2-0.6,3
		c0,0.1-0.1,0.3-0.1,0.4c-0.1,0.6-0.3,1.2-0.5,1.8c0,0,0,0,0,0h0c-7,25.7-30.5,44.5-58.4,44.5c-33.4,0-60.5-27.1-60.5-60.5
		c0-20,9.7-37.8,24.7-48.8c0.6-0.4,1.1-0.8,1.7-1.2c0.3-0.2,0.6-0.4,0.8-0.6c0.5-0.3,0.9-0.6,1.4-0.9c0.3-0.2,0.6-0.4,0.9-0.6
		c0.5-0.3,1-0.6,1.5-0.8c0.3-0.2,0.6-0.3,0.9-0.5c0.6-0.3,1.2-0.6,1.8-0.9c0.2-0.1,0.4-0.2,0.6-0.3c0.8-0.4,1.6-0.7,2.4-1.1
		c0.3-0.1,0.5-0.2,0.8-0.3c0.6-0.2,1.1-0.5,1.7-0.7c0.3-0.1,0.6-0.2,1-0.4c0.5-0.2,1.1-0.4,1.7-0.6c0.3-0.1,0.6-0.2,1-0.3
		c0.6-0.2,1.2-0.4,1.9-0.5c0.3-0.1,0.5-0.1,0.8-0.2c0.9-0.2,1.8-0.4,2.7-0.6c0.2,0,0.4-0.1,0.6-0.1c0.7-0.1,1.4-0.3,2.1-0.4
		c0.3-0.1,0.6-0.1,1-0.1c0.6-0.1,1.2-0.2,1.9-0.2c0.3,0,0.7-0.1,1-0.1c0.6-0.1,1.3-0.1,2-0.1c0.3,0,0.6,0,0.9-0.1
		c0.9,0,1.9-0.1,2.9-0.1c0,0,0,0,0,0c10.4,0,20.2,2.6,28.7,7.2c0.3,0.1,0.5,0.3,0.8,0.4c1.8,1,3.6,2.1,5.3,3.3
		c1,0.7,2.1,1.5,3.1,2.3c0.3,0.3,0.6,0.5,1,0.8c1.3,1.1,2.6,2.3,3.9,3.5c0,0,0.1,0.1,0.1,0.1c2.6,2.6,4.9,5.4,7,8.4
		c0.8,1.2,1.6,2.4,2.4,3.7c5.3,9,8.4,19.5,8.4,30.7C421.3,645.4,421.3,646.3,421.3,647.2z M528.9,660.4H448c0.9-5.2,1.4-10.6,1.4-16
		c0-23.7-9.2-45.9-26-62.7c-16.7-16.7-39-26-62.7-26c-12.7,0-25,2.7-36.3,7.7v-62.4c0-15.5,12.7-28.1,28.1-28.1h38.8v-62
		c0-5.5-2.2-10.9-6.1-14.8l-41.1-41.7c-8.2-8.3-8.1-21.7,0.2-29.8l0,0c8.3-8.2,21.7-8.1,29.8,0.2l53.2,54c3.9,3.9,6.1,9.3,6.1,14.8
		V473h70.2l40.4-100.9c2.1-5.3,7.3-8.8,13.1-8.8h111.5c7.8,0,14.1,6.3,14.1,14l0.2,129.4c0,0,0,0.1,0,0.1c-14.4-6-29.6-9-45.2-9
		c-15.9,0-31.3,3.1-45.9,9.3c-14,5.9-26.6,14.4-37.4,25.2c-10.8,10.8-19.3,23.4-25.2,37.4c-6.1,14.5-9.3,30-9.3,45.9
		C520.1,631.2,523.1,646.2,528.9,660.4z M637.9,705.3c-33.2,0-62.2-18.1-77.7-44.9c0,0,0,0,0,0c-0.5-0.8-0.9-1.6-1.3-2.4
		c-0.1-0.1-0.1-0.2-0.2-0.4c-0.4-0.7-0.7-1.3-1-2c-0.1-0.2-0.2-0.3-0.3-0.5c-0.4-0.7-0.7-1.5-1-2.2c0-0.1-0.1-0.1-0.1-0.2
		c-0.4-0.8-0.7-1.7-1.1-2.5c0-0.1-0.1-0.2-0.1-0.4c-0.3-0.7-0.6-1.4-0.8-2.1c-0.1-0.2-0.2-0.4-0.2-0.6c-0.3-0.7-0.5-1.4-0.8-2.1
		c0-0.1-0.1-0.3-0.1-0.4c-0.3-0.9-0.6-1.7-0.8-2.6c0-0.1-0.1-0.2-0.1-0.4c-0.2-0.7-0.4-1.5-0.6-2.2c-0.1-0.2-0.1-0.5-0.2-0.7
		c-0.2-0.7-0.4-1.4-0.5-2.1c0-0.2-0.1-0.4-0.1-0.6c-0.2-0.9-0.4-1.8-0.6-2.6c0-0.1,0-0.2-0.1-0.3c-0.2-0.8-0.3-1.5-0.4-2.3
		c0-0.3-0.1-0.5-0.1-0.8c-0.1-0.7-0.2-1.3-0.3-2c0-0.2-0.1-0.5-0.1-0.7c-0.1-0.9-0.2-1.8-0.3-2.7c0-0.1,0-0.2,0-0.3
		c-0.1-0.8-0.1-1.6-0.2-2.4c0-0.3,0-0.6-0.1-0.8c0-0.7-0.1-1.3-0.1-2c0-0.3,0-0.5,0-0.8c0-0.9,0-1.8,0-2.8c0-4.6,0.4-9.2,1-13.7
		c0.2-1.5,0.5-3,0.8-4.4c0.1-0.7,0.3-1.5,0.5-2.2c1.7-7.2,4.2-14.1,7.5-20.6c0.7-1.3,1.4-2.6,2.1-3.8c7.9-13.8,19.4-25.2,33.2-33.2
		c1.3-0.7,2.5-1.4,3.8-2.1c6.4-3.3,13.3-5.8,20.6-7.5c0.7-0.2,1.4-0.3,2.2-0.5c1.5-0.3,2.9-0.6,4.4-0.8c4.5-0.7,9-1,13.7-1
		c0.9,0,1.9,0,2.8,0c0.3,0,0.5,0,0.8,0c0.7,0,1.4,0.1,2.1,0.1c0.3,0,0.5,0,0.8,0c1.8,0.1,3.7,0.3,5.5,0.6c0.2,0,0.5,0.1,0.7,0.1
		c0.7,0.1,1.4,0.2,2.2,0.3c0.2,0,0.4,0.1,0.6,0.1c1.8,0.3,3.6,0.7,5.4,1.1c0.2,0,0.3,0.1,0.5,0.1c0.8,0.2,1.6,0.4,2.3,0.6
		c0.1,0,0.3,0.1,0.4,0.1c1.8,0.5,3.6,1.1,5.4,1.7c0.1,0,0.2,0.1,0.3,0.1c0.8,0.3,1.7,0.6,2.5,0.9c0,0,0.1,0,0.1,0.1
		c1.8,0.7,3.6,1.4,5.3,2.2c0,0,0,0,0.1,0c30.7,14.2,52,45.3,52,81.4C727.5,665.2,687.4,705.3,637.9,705.3z"/>
</g>
<g id="图层_2">
</g>
</svg>
